# xmcd
#
# Track frame offsets: 
#        150
#        16502
#        34525
#        44515
#        69232
#        88756
#        103595
#        120708
#        132200
#        157068
#        179137
#        196187
#        214365
#        244383
#        269093
#        286456
#        305834
#
# Disc length: 4337 seconds
#
# Revision: 0
# Processed by: cddbd v1.5.2PL0 Copyright (c) Steve Scherf et al.
# Submitted via: ExactAudioCopy v0.99pb5
#
DISCID=0310ef11
DTITLE=Boogie Connection - live 2010
DYEAR=2010
DGENRE=Blues
TTITLE0=Downunder Boogie
TTITLE1=Clean My Room
TTITLE2=Petia Is Alive
TTITLE3=Srinagar Blues
TTITLE4=Marco "Meats" Kathrina
TTITLE5=Something Stupid
TTITLE6=Honky Tonk Train Blues
TTITLE7=Do It Right Boogie
TTITLE8=30th Step Blues
TTITLE9=Pinetops Boogie
TTITLE10=Happy Closed
TTITLE11=Guitar BooWoo
TTITLE12=A Painful Thing
TTITLE13=Hit That Nail
TTITLE14=Bistro Boogie
TTITLE15=Dampfhammerblues
TTITLE16=Teaches One
EXTD=
EXTT0=
EXTT1=
EXTT2=
EXTT3=
EXTT4=
EXTT5=
EXTT6=
EXTT7=
EXTT8=
EXTT9=
EXTT10=
EXTT11=
EXTT12=
EXTT13=
EXTT14=
EXTT15=
EXTT16=
PLAYORDER=
